<svg width="132" height="292" viewBox="0 0 132 292" fill="none" xmlns="http://www.w3.org/2000/svg">
    <style>
        .front {
            position: relative;
            z-index: -5;
        }
    </style>
    
    <path class="front" fill-rule="evenodd" clip-rule="evenodd"
        d="M47.2421 11.007L79.1742 11.007C101.742 11.007 120.102 29.371 120.102 51.943L120.102 225.378C120.102 225.535 120.113 225.69 120.125 225.844C120.112 225.998 120.102 226.153 120.102 226.31C120.102 256.25 95.7441 280.609 65.8031 280.609C35.8681 280.609 11.5121 256.251 11.5122 226.31L11.5122 88.629C11.5122 85.59 9.04917 83.126 6.01017 83.126C2.97117 83.126 0.506167 85.59 0.506167 88.629L0.506155 226.309C0.507152 262.318 29.8001 291.614 65.8031 291.614C101.812 291.614 131.108 262.318 131.108 226.309C131.108 226.152 131.097 225.997 131.085 225.843C131.098 225.689 131.108 225.534 131.108 225.377L131.108 51.941C131.108 23.3 107.81 2.84808e-05 79.1742 2.59774e-05C67.1442 0.000445056 56.0562 4.11335 47.2421 11.007Z"
        fill="#969696" />
    <path
        d="M27.379 51.935L27.379 137.331L27.379 200.608L27.379 223.687C27.379 244.943 44.678 262.236 65.939 262.236C87.202 262.236 104.5 244.943 104.5 223.687L104.5 88.622C104.5 85.583 102.036 83.119 98.997 83.119C95.957 83.119 93.494 85.583 93.494 88.622L93.494 223.687C93.494 238.874 81.133 251.23 65.939 251.23C50.746 251.23 38.385 238.874 38.385 223.687L38.385 200.608L38.385 137.332L38.385 51.936C38.385 29.365 56.744 11 79.31 11L47.378 11C35.2126 20.5148 27.379 35.327 27.379 51.935Z"
        fill="#969696" />
</svg>