<svg width="131" height="292" viewBox="0 0 131 292" fill="none" xmlns="http://www.w3.org/2000/svg">
<path d="M26.9548 49.935L26.9548 135.331L26.9548 198.608L26.9548 221.687C26.9548 242.943 44.3065 260.236 65.6323 260.236C86.9601 260.236 104.311 242.943 104.311 221.687L104.311 86.622C104.311 83.583 101.839 81.119 98.791 81.119C95.7418 81.119 93.2713 83.583 93.2713 86.622L93.2713 221.687C93.2713 236.874 80.8726 249.23 65.6323 249.23C50.393 249.23 37.9943 236.874 37.9943 221.687L37.9943 198.608L37.9943 135.332L37.9943 49.936C37.9943 27.365 56.4093 9.00002 79.044 9.00003L47.0147 9.00002C34.8123 18.5148 26.9548 33.327 26.9548 49.935Z" fill="#969696"/>
</svg>
