<svg width="131" height="293" viewBox="0 0 131 293" fill="none" xmlns="http://www.w3.org/2000/svg">
<path fill-rule="evenodd" clip-rule="evenodd" d="M46.8784 11.007L78.9077 11.007C101.545 11.007 119.96 29.371 119.96 51.943L119.96 225.378C119.96 225.535 119.971 225.69 119.984 225.844C119.97 225.998 119.96 226.153 119.96 226.31C119.96 256.25 95.5282 280.609 65.496 280.609C35.4698 280.609 11.0396 256.251 11.0396 226.31L11.0396 88.629C11.0396 85.59 8.56905 83.126 5.52079 83.126C2.47253 83.126 1.90182e-05 85.59 1.90464e-05 88.629L2.03219e-05 226.309C0.0010237 262.318 29.3833 291.614 65.496 291.614C101.615 291.614 131 262.318 131 226.309C131 226.152 130.989 225.997 130.977 225.843C130.99 225.689 131 225.534 131 225.377L131 51.941C131 23.3 107.631 2.34448e-05 78.9077 1.47515e-05C66.8411 0.000431229 55.7193 4.11334 46.8784 11.007Z" fill="#969696"/>
</svg>
